<svg width="18" height="18" viewBox="0 0 18 18" fill="none" xmlns="http://www.w3.org/2000/svg">
<path fill-rule="evenodd" clip-rule="evenodd" d="M6.03562 3.8347C6.25978 3.81128 6.48719 3.79928 6.7173 3.79928C9.79513 3.79928 12.3895 5.94572 13.1841 8.87376C13.2477 8.86963 13.3117 8.86694 13.376 8.86573C13.3499 8.86527 13.3237 8.86504 13.2974 8.86504L13.2762 8.8651L13.2762 8.86498H14.2473H14.2854V8.86465C15.4918 8.8443 16.4635 7.85999 16.4635 6.64873C16.4635 5.42473 15.4713 4.43249 14.2473 4.43249C13.8363 4.43249 13.4515 4.54435 13.1215 4.73928C13.1205 4.38549 13.0668 4.0441 12.9678 3.72256C12.4744 2.29316 11.1171 1.26643 9.52004 1.26643C7.8815 1.26643 6.49538 2.34716 6.03562 3.8347ZM15.9422 9.69187C17.0246 10.496 17.73 11.8113 17.73 13.2975C17.73 15.7454 15.8161 17.7299 13.4553 17.7299C13.4025 17.7299 13.3498 17.7289 13.2975 17.727V17.73H6.81788V17.7292C6.78441 17.7297 6.75088 17.73 6.7173 17.73C3.00744 17.73 0 14.6115 0 10.7646C0 7.65828 1.96102 5.02688 4.66938 4.12891C5.04475 1.78823 7.07356 0 9.52004 0C11.619 0 13.4106 1.31635 14.1142 3.16856C14.1584 3.1669 14.2027 3.16606 14.2473 3.16606C16.1707 3.16606 17.7299 4.72531 17.7299 6.64873C17.7299 7.95688 17.0087 9.09658 15.9422 9.69187ZM13.2975 16.4635H6.81788H6.745V16.4635L6.7173 16.4635C3.74975 16.4635 1.26643 13.9557 1.26643 10.7646C1.26643 7.57352 3.74975 5.0657 6.7173 5.0657C9.23468 5.0657 11.4036 6.87038 12.0037 9.36594L12.0056 9.36516C12.0904 9.71141 12.1444 10.0704 12.1645 10.4388C12.5591 10.2411 12.9981 10.1314 13.4553 10.1314C15.0738 10.1314 16.4635 11.5052 16.4635 13.2975C16.4635 15.0771 15.0932 16.4442 13.4893 16.4633V16.4635H13.2975Z" fill="white"/>
</svg>
