<svg width="20" height="16" viewBox="0 0 20 16" fill="none" xmlns="http://www.w3.org/2000/svg">
<path fill-rule="evenodd" clip-rule="evenodd" d="M8.05918 3.21909L8.05918 3.21434L3.49714 3.21429L7.87318 1.63303L7.87271 1.63173C7.95651 1.6106 8.04324 1.60308 8.12955 1.60952C8.14093 1.61037 8.15231 1.61146 8.16368 1.6128L8.16385 1.61282C8.28236 1.62678 8.39629 1.66689 8.49742 1.73027L8.49743 1.73028C8.59855 1.79366 8.68433 1.87872 8.74858 1.97931L8.74868 1.97947C8.8129 2.08007 8.85398 2.19367 8.86895 2.31208L8.86898 2.31231C8.88393 2.43077 8.87238 2.55107 8.83516 2.66451L8.83513 2.6646C8.79789 2.77808 8.7359 2.88185 8.65365 2.96842L8.65357 2.9685C8.57134 3.05504 8.47091 3.12221 8.35954 3.16517L8.35933 3.16526C8.34885 3.16929 8.33831 3.17311 8.3277 3.17669C8.2412 3.20595 8.1504 3.22027 8.05918 3.21909ZM0 2.76392V4.82619L8.0426 4.82629C8.34804 4.82972 8.65185 4.77508 8.93772 4.6648L8.93793 4.66472C9.15554 4.58075 9.35919 4.4659 9.54287 4.32422C9.64067 4.24878 9.73281 4.16572 9.81837 4.07567L9.81844 4.07559C10.0647 3.81641 10.2502 3.50574 10.3617 3.16603L10.3618 3.16594C10.4733 2.82624 10.5079 2.466 10.4632 2.11128L10.4632 2.11105C10.4184 1.75631 10.2954 1.41596 10.103 1.1146L10.1029 1.11443C9.91053 0.813032 9.65356 0.558174 9.35062 0.368292L9.3506 0.368283C9.24533 0.302297 9.13541 0.244731 9.02189 0.195949C8.80875 0.104357 8.58291 0.0437344 8.35124 0.0164971L8.35106 0.016477C8.0059 -0.0240774 7.65617 0.0104562 7.32579 0.117572L7.32554 0.116885L7.30081 0.12582L7.2979 0.126802L7.29756 0.126916L7.29759 0.126988L0 2.76392ZM0 9.66931V11.325L10.6427 15.1113L10.6425 15.1116C11.0277 15.2653 11.442 15.3321 11.8559 15.3072C12.0151 15.2977 12.1727 15.2747 12.3271 15.2387C12.5742 15.1811 12.8132 15.0902 13.0372 14.968C13.4013 14.7693 13.717 14.4928 13.962 14.1582C14.207 13.8235 14.3752 13.4389 14.4545 13.0318C14.5339 12.6247 14.5225 12.205 14.4212 11.8028C14.3198 11.4006 14.1311 11.0257 13.8683 10.7048C13.7066 10.5073 13.5192 10.3333 13.3118 10.187C13.1823 10.0956 13.0449 10.0151 12.901 9.94643C12.5273 9.76813 12.1189 9.67435 11.7049 9.67175V9.66934L0 9.66931ZM11.694 11.2813L4.68643 11.2813L11.27 13.6234L11.2694 13.6251C11.4258 13.6828 11.5927 13.7076 11.7594 13.6976C11.9367 13.6869 12.1094 13.6373 12.2653 13.5523C12.4212 13.4672 12.5564 13.3488 12.6613 13.2055C12.7662 13.0622 12.8382 12.8975 12.8722 12.7232C12.9062 12.5488 12.9013 12.3691 12.8579 12.1969C12.8145 12.0246 12.7337 11.8641 12.6212 11.7267C12.5087 11.5893 12.3672 11.4784 12.2069 11.4019C12.0469 11.3256 11.872 11.2854 11.6947 11.2843L11.6939 11.2843L11.6939 11.284L11.694 11.2813ZM15.3268 3.42359L15.3261 3.42399L14.5334 2.02054L14.5325 2.01892L14.5341 2.01802C14.9633 1.77582 15.4422 1.63524 15.9342 1.60712C16.0056 1.60304 16.0769 1.60134 16.1482 1.602C16.5687 1.60592 16.9851 1.69212 17.3737 1.85649C17.8281 2.04871 18.2323 2.3427 18.5553 2.71582C18.8782 3.08894 19.1112 3.53123 19.2364 4.00862C19.3615 4.48601 19.3754 4.98576 19.277 5.46938C19.1787 5.953 18.9706 6.40758 18.669 6.7981C18.411 7.13201 18.0905 7.41147 17.726 7.62127C17.6643 7.65683 17.6012 7.6904 17.537 7.72189C17.094 7.93911 16.607 8.05171 16.1136 8.05102V8.05079H0V6.43897H16.1159L16.1159 6.43723C16.3623 6.43758 16.6056 6.38133 16.8269 6.27282C17.0482 6.16431 17.2417 6.00643 17.3924 5.81135C17.5431 5.61627 17.647 5.3892 17.6961 5.14761C17.7453 4.90603 17.7383 4.65639 17.6758 4.41791C17.6133 4.17944 17.4969 3.9585 17.3356 3.77211C17.1743 3.58573 16.9723 3.43887 16.7453 3.34285C16.5183 3.24683 16.2723 3.20421 16.0263 3.21828C15.7805 3.23233 15.5412 3.30257 15.3268 3.42359Z" fill="white"/>
</svg>
